{
	"asset":{
		"generator":"Khronos glTF Blender I/O v4.1.63",
		"version":"2.0"
	},
	"scene":0,
	"scenes":[
		{
			"name":"Scene",
			"nodes":[
				0,
				1,
				2,
				3,
				4,
				37
			]
		}
	],
	"nodes":[
		{
			"mesh":0,
			"name":"hat",
			"rotation":[
				0.1185649037361145,
				0.008650673553347588,
				0.0012664153473451734,
				0.9929078221321106
			],
			"scale":[
				-0.04898539185523987,
				-0.04191204532980919,
				-0.048985403031110764
			],
			"translation":[
				0.0018957201391458511,
				1.2834627628326416,
				0.00023554021026939154
			]
		},
		{
			"mesh":1,
			"name":"Plane",
			"translation":[
				-0.00043306685984134674,
				0.8533312082290649,
				-0.01225848775357008
			]
		},
		{
			"mesh":2,
			"name":"pants",
			"rotation":[
				-0.7372772693634033,
				0,
				0,
				0.6755903363227844
			],
			"scale":[
				0.1545434147119522,
				0.1545434296131134,
				0.1545434296131134
			],
			"translation":[
				-0.0001623351126909256,
				0.31185728311538696,
				0.004593802150338888
			]
		},
		{
			"mesh":3,
			"name":"Plane.001",
			"rotation":[
				-0.766044557094574,
				0,
				0,
				0.6427876353263855
			],
			"scale":[
				0.13921181857585907,
				0.13496826589107513,
				0.13997915387153625
			],
			"translation":[
				-0.0013003181666135788,
				0.837563157081604,
				-0.05387713015079498
			]
		},
		{
			"mesh":4,
			"name":"Cube.001",
			"rotation":[
				0,
				0,
				1,
				1.9470715528768778e-07
			],
			"scale":[
				0.03718887269496918,
				0.03718887269496918,
				0.03718887269496918
			],
			"translation":[
				-0.8996838331222534,
				0.07365947216749191,
				-0.029429256916046143
			]
		},
		{
			"name":"L.ThumbBone_end",
			"rotation":[
				-5.513429641723633e-07,
				1.1175868053214799e-07,
				2.9089637365586896e-08,
				1
			],
			"scale":[
				1,
				1.0000001192092896,
				1.0000001192092896
			],
			"translation":[
				1.3199823456488957e-09,
				0.06403138488531113,
				5.99470908468902e-08
			]
		},
		{
			"children":[
				5
			],
			"name":"L.ThumbBone",
			"rotation":[
				0.37069758772850037,
				-2.938503484983812e-07,
				-9.655815347286989e-08,
				0.9287536144256592
			],
			"scale":[
				1,
				0.9999999403953552,
				1
			],
			"translation":[
				-4.0179592986078205e-09,
				0.07668918371200562,
				-2.1092398583277827e-07
			]
		},
		{
			"name":"L.Fingers_end",
			"rotation":[
				-1.2665987014770508e-07,
				1.1175869474300271e-07,
				-3.6306820451557226e-14,
				1
			],
			"translation":[
				8.178524524282693e-10,
				0.11401762068271637,
				-5.09390574165991e-09
			]
		},
		{
			"children":[
				7
			],
			"name":"L.Fingers",
			"rotation":[
				-0.2000351846218109,
				-9.975839532216924e-08,
				-2.538511623129125e-08,
				0.9797887206077576
			],
			"scale":[
				1,
				0.9999998807907104,
				1
			],
			"translation":[
				-4.0179592986078205e-09,
				0.07668918371200562,
				-2.1092398583277827e-07
			]
		},
		{
			"children":[
				6,
				8
			],
			"name":"L.WristBone",
			"rotation":[
				0.11726664006710052,
				1.2974530338993873e-09,
				3.470454146281554e-08,
				0.9931005239486694
			],
			"scale":[
				1,
				0.9999999403953552,
				0.9999999403953552
			],
			"translation":[
				1.9127810446661897e-11,
				0.20329684019088745,
				1.6129136781728448e-07
			]
		},
		{
			"children":[
				9
			],
			"name":"L.BotArmBone",
			"rotation":[
				-0.010963034816086292,
				4.773176698336101e-08,
				1.806254523728512e-08,
				0.9999399185180664
			],
			"translation":[
				-3.0885836110883247e-09,
				0.23381659388542175,
				2.0842020376221626e-07
			]
		},
		{
			"children":[
				10
			],
			"name":"L.TopArmBone",
			"rotation":[
				-0.4153640866279602,
				0.04490212723612785,
				-0.09764789789915085,
				0.9032837152481079
			],
			"scale":[
				0.9999999403953552,
				0.9999999403953552,
				1.0000001192092896
			],
			"translation":[
				0.028587298467755318,
				0.275442898273468,
				-0.07699679583311081
			]
		},
		{
			"children":[
				11
			],
			"name":"L.ShoulderBone",
			"rotation":[
				-0.1919187754392624,
				0.6747728586196899,
				0.3467550575733185,
				0.6225830912590027
			],
			"scale":[
				1.0000001192092896,
				1.000000238418579,
				1
			],
			"translation":[
				2.384185791015625e-07,
				0.20004931092262268,
				-6.984919309616089e-09
			]
		},
		{
			"name":"head_end",
			"rotation":[
				6.918384087839513e-09,
				8.902562020907112e-10,
				-1.2514648206618517e-09,
				1
			],
			"translation":[
				-1.6746924680344222e-10,
				0.1400001049041748,
				-1.2890195577597297e-09
			]
		},
		{
			"children":[
				13
			],
			"name":"head",
			"rotation":[
				-0.07663646340370178,
				-0.0008715477888472378,
				-0.01133869867771864,
				0.9969942569732666
			],
			"scale":[
				0.9999999403953552,
				0.9999999403953552,
				0.9999998807907104
			],
			"translation":[
				-1.1777841990578963e-07,
				0.20242971181869507,
				1.1334122973494232e-08
			]
		},
		{
			"children":[
				14
			],
			"name":"neckBone",
			"rotation":[
				0.08769886940717697,
				0.0007456314051523805,
				0.011347675696015358,
				0.9960821270942688
			],
			"scale":[
				0.9999999403953552,
				0.9999999403953552,
				1
			],
			"translation":[
				2.384185791015625e-07,
				0.20004931092262268,
				-6.984919309616089e-09
			]
		},
		{
			"name":"R.ThumbBone_end",
			"rotation":[
				-9.08970832824707e-07,
				-4.4703345025709496e-08,
				-2.9090255537767007e-08,
				1
			],
			"translation":[
				4.2663383936769605e-10,
				0.06403117626905441,
				8.414469121476031e-11
			]
		},
		{
			"children":[
				16
			],
			"name":"R.ThumbBone",
			"rotation":[
				0.37069711089134216,
				7.033450799553975e-08,
				1.209533024848497e-07,
				0.9287537932395935
			],
			"translation":[
				2.5523265723137456e-09,
				0.07668957114219666,
				-3.4435507245689223e-07
			]
		},
		{
			"name":"R.Fingers_end",
			"rotation":[
				-2.9802325229866256e-07,
				-8.195641498787154e-08,
				1.0777441222450945e-13,
				1
			],
			"scale":[
				1,
				0.9999999403953552,
				0.9999999403953552
			],
			"translation":[
				2.3369537416328967e-09,
				0.11401763558387756,
				-2.4905249418338826e-08
			]
		},
		{
			"children":[
				18
			],
			"name":"R.Fingers",
			"rotation":[
				-0.20003542304039001,
				-1.508829257090838e-07,
				-1.778680136510502e-08,
				0.9797886610031128
			],
			"translation":[
				2.5523265723137456e-09,
				0.07668957114219666,
				-3.4435507245689223e-07
			]
		},
		{
			"children":[
				17,
				19
			],
			"name":"R.WristBone",
			"rotation":[
				0.11726706475019455,
				1.7080937197988533e-07,
				1.992048126453483e-08,
				0.9931004643440247
			],
			"scale":[
				1,
				0.9999998807907104,
				1
			],
			"translation":[
				3.6706282457998896e-10,
				0.2032964527606964,
				1.3084837746646372e-07
			]
		},
		{
			"children":[
				20
			],
			"name":"R.BotArmBone",
			"rotation":[
				-0.01096311118453741,
				-9.164578784748301e-08,
				-3.1156378810237584e-08,
				0.9999399185180664
			],
			"translation":[
				-3.9802021234436324e-08,
				0.2338167130947113,
				-8.805264428701776e-08
			]
		},
		{
			"children":[
				21
			],
			"name":"R.TopArmBone",
			"rotation":[
				-0.4153640568256378,
				-0.044902026653289795,
				0.09764789044857025,
				0.9032837152481079
			],
			"scale":[
				0.9999998807907104,
				1,
				0.9999999403953552
			],
			"translation":[
				-0.028587257489562035,
				0.2754429578781128,
				-0.07699651271104813
			]
		},
		{
			"children":[
				22
			],
			"name":"R.ShoulderBone",
			"rotation":[
				-0.19191880524158478,
				-0.6747729182243347,
				-0.3467550277709961,
				0.6225830912590027
			],
			"scale":[
				1.0000001192092896,
				1.0000001192092896,
				1.0000001192092896
			],
			"translation":[
				2.384185791015625e-07,
				0.20004931092262268,
				-6.984919309616089e-09
			]
		},
		{
			"children":[
				12,
				15,
				23
			],
			"name":"Bone.001",
			"rotation":[
				-0.05033128336071968,
				-1.1905828500857751e-07,
				-5.99995830796729e-09,
				0.9987326264381409
			],
			"scale":[
				1,
				0.9999999403953552,
				1.0000001192092896
			],
			"translation":[
				7.0272954122430065e-12,
				0.22939133644104004,
				-2.936246579210433e-09
			]
		},
		{
			"children":[
				24
			],
			"name":"Bone",
			"rotation":[
				0.03924163058400154,
				1.1911753006188519e-07,
				4.677969567268292e-09,
				0.9992297887802124
			],
			"scale":[
				1,
				0.9999999403953552,
				0.9999999403953552
			],
			"translation":[
				0.00036704540252685547,
				-0.2009749710559845,
				-0.01142517477273941
			]
		},
		{
			"name":"L.Foot_end",
			"rotation":[
				-2.0372681319713593e-07,
				-5.809124559164047e-08,
				-3.2017851481214166e-07,
				1
			],
			"translation":[
				4.4994521886110306e-08,
				0.27559956908226013,
				2.0954757928848267e-09
			]
		},
		{
			"children":[
				26
			],
			"name":"L.Foot",
			"rotation":[
				0.034721728414297104,
				0.0094052879139781,
				-0.5162473917007446,
				0.8556836843490601
			],
			"scale":[
				1.0000001192092896,
				1,
				1
			],
			"translation":[
				2.0227162167429924e-08,
				0.383963018655777,
				1.2218370670780132e-07
			]
		},
		{
			"children":[
				27
			],
			"name":"L.Shin",
			"rotation":[
				-0.008990766480565071,
				0.0010919710621237755,
				0.013048860244452953,
				0.9998738765716553
			],
			"scale":[
				0.9999998807907104,
				0.9999998807907104,
				0.9999999403953552
			],
			"translation":[
				-1.6530975699424744e-08,
				0.2918665111064911,
				1.196823546933956e-07
			]
		},
		{
			"children":[
				28
			],
			"name":"L.Leg",
			"rotation":[
				-0.540252149105072,
				0.008105307817459106,
				0.07797664403915405,
				0.8378434181213379
			],
			"scale":[
				1,
				0.9999999403953552,
				1
			],
			"translation":[
				3.725290298461914e-09,
				0.11214260756969452,
				1.952015082906655e-08
			]
		},
		{
			"children":[
				29
			],
			"name":"L.hip",
			"rotation":[
				-0.6155031323432922,
				0.3480745851993561,
				0.5865887403488159,
				0.3948591351509094
			],
			"translation":[
				0.00036704540252685547,
				-0.2009749710559845,
				-0.01142517477273941
			]
		},
		{
			"name":"R.Foot_end",
			"rotation":[
				2.2654420206436043e-07,
				-6.28642693456527e-09,
				3.567802195902914e-07,
				1
			],
			"scale":[
				1,
				1,
				1.0000001192092896
			],
			"translation":[
				5.547190085053444e-08,
				0.27559953927993774,
				-4.307366907596588e-09
			]
		},
		{
			"children":[
				31
			],
			"name":"R.Foot",
			"rotation":[
				0.03472156822681427,
				-0.009405330754816532,
				0.5162473917007446,
				0.8556836843490601
			],
			"translation":[
				-2.601882442831993e-08,
				0.383963018655777,
				-2.3793634795765684e-07
			]
		},
		{
			"children":[
				32
			],
			"name":"R.Shin",
			"rotation":[
				-0.008990793488919735,
				-0.0010918532498180866,
				-0.01304886769503355,
				0.9998738765716553
			],
			"scale":[
				0.9999998807907104,
				0.9999998807907104,
				0.9999998807907104
			],
			"translation":[
				1.7171259969472885e-09,
				0.29186657071113586,
				2.395727847215312e-07
			]
		},
		{
			"children":[
				33
			],
			"name":"R.Leg",
			"rotation":[
				-0.5402519702911377,
				-0.008105502463877201,
				-0.07797665894031525,
				0.8378434777259827
			],
			"translation":[
				-1.3969838619232178e-09,
				0.11214236915111542,
				-9.508045906159168e-09
			]
		},
		{
			"children":[
				34
			],
			"name":"R.hip",
			"rotation":[
				-0.6155031323432922,
				-0.34807437658309937,
				-0.5865887999534607,
				0.39485907554626465
			],
			"translation":[
				0.00036704540252685547,
				-0.2009749710559845,
				-0.01142517477273941
			]
		},
		{
			"mesh":5,
			"name":"body",
			"skin":0
		},
		{
			"children":[
				36,
				25,
				30,
				35
			],
			"name":"pelvisBone",
			"translation":[
				0.0005010366439819336,
				0.6258020401000977,
				-0.008082590997219086
			]
		}
	],
	"materials":[
		{
			"doubleSided":true,
			"name":"Material.003",
			"pbrMetallicRoughness":{
				"metallicFactor":0,
				"roughnessFactor":0.5
			}
		},
		{
			"doubleSided":true,
			"name":"coat",
			"pbrMetallicRoughness":{
				"metallicFactor":0,
				"roughnessFactor":0.5
			}
		},
		{
			"doubleSided":true,
			"name":"Material.001",
			"pbrMetallicRoughness":{
				"metallicFactor":0,
				"roughnessFactor":0.5
			}
		},
		{
			"doubleSided":true,
			"name":"Material.004",
			"pbrMetallicRoughness":{
				"metallicFactor":0,
				"roughnessFactor":0.5
			}
		},
		{
			"doubleSided":true,
			"name":"Material.005",
			"pbrMetallicRoughness":{
				"metallicFactor":0,
				"roughnessFactor":0.5
			}
		},
		{
			"doubleSided":true,
			"name":"Material.002",
			"pbrMetallicRoughness":{
				"metallicFactor":0,
				"roughnessFactor":0.5
			}
		}
	],
	"meshes":[
		{
			"name":"Cube.001",
			"primitives":[
				{
					"attributes":{
						"POSITION":0,
						"NORMAL":1,
						"TEXCOORD_0":2
					},
					"indices":3,
					"material":0
				}
			]
		},
		{
			"name":"Plane",
			"primitives":[
				{
					"attributes":{
						"POSITION":4,
						"NORMAL":5,
						"TEXCOORD_0":6
					},
					"indices":7,
					"material":1
				}
			]
		},
		{
			"name":"Plane.001",
			"primitives":[
				{
					"attributes":{
						"POSITION":8,
						"NORMAL":9,
						"TEXCOORD_0":10
					},
					"indices":11,
					"material":2
				}
			]
		},
		{
			"name":"Plane.003",
			"primitives":[
				{
					"attributes":{
						"POSITION":12,
						"NORMAL":13,
						"TEXCOORD_0":14
					},
					"indices":15,
					"material":3
				}
			]
		},
		{
			"name":"Cube.002",
			"primitives":[
				{
					"attributes":{
						"POSITION":16,
						"NORMAL":17,
						"TEXCOORD_0":18
					},
					"indices":19,
					"material":4
				}
			]
		},
		{
			"name":"Plane.002",
			"primitives":[
				{
					"attributes":{
						"POSITION":20,
						"NORMAL":21,
						"TEXCOORD_0":22,
						"JOINTS_0":23,
						"WEIGHTS_0":24
					},
					"indices":25,
					"material":5
				}
			]
		}
	],
	"skins":[
		{
			"inverseBindMatrices":26,
			"joints":[
				25,
				24,
				12,
				11,
				10,
				9,
				6,
				5,
				8,
				7,
				15,
				14,
				13,
				23,
				22,
				21,
				20,
				17,
				16,
				19,
				18,
				30,
				29,
				28,
				27,
				26,
				35,
				34,
				33,
				32,
				31
			],
			"name":"pelvisBone"
		}
	],
	"accessors":[
		{
			"bufferView":0,
			"componentType":5126,
			"count":192,
			"max":[
				2.274188280105591,
				0.635432243347168,
				2.7315611839294434
			],
			"min":[
				-2.274188280105591,
				-1.364567756652832,
				-3.147185802459717
			],
			"type":"VEC3"
		},
		{
			"bufferView":1,
			"componentType":5126,
			"count":192,
			"type":"VEC3"
		},
		{
			"bufferView":2,
			"componentType":5126,
			"count":192,
			"type":"VEC2"
		},
		{
			"bufferView":3,
			"componentType":5123,
			"count":348,
			"type":"SCALAR"
		},
		{
			"bufferView":4,
			"componentType":5126,
			"count":354,
			"max":[
				0.7376190423965454,
				0.21936488151550293,
				0.2750295400619507
			],
			"min":[
				-0.7376190423965454,
				-0.9546833634376526,
				-0.2656412124633789
			],
			"type":"VEC3"
		},
		{
			"bufferView":5,
			"componentType":5126,
			"count":354,
			"type":"VEC3"
		},
		{
			"bufferView":6,
			"componentType":5126,
			"count":354,
			"type":"VEC2"
		},
		{
			"bufferView":7,
			"componentType":5123,
			"count":510,
			"type":"SCALAR"
		},
		{
			"bufferView":8,
			"componentType":5126,
			"count":204,
			"max":[
				1.382381558418274,
				1.1202915906906128,
				2.1333234310150146
			],
			"min":[
				-1.382381558418274,
				-1.1970199346542358,
				-4.247246742248535
			],
			"type":"VEC3"
		},
		{
			"bufferView":9,
			"componentType":5126,
			"count":204,
			"type":"VEC3"
		},
		{
			"bufferView":10,
			"componentType":5126,
			"count":204,
			"type":"VEC2"
		},
		{
			"bufferView":11,
			"componentType":5123,
			"count":312,
			"type":"SCALAR"
		},
		{
			"bufferView":12,
			"componentType":5126,
			"count":116,
			"max":[
				1.88643479347229,
				1.1318488121032715,
				1.3750691413879395
			],
			"min":[
				-1.88643479347229,
				-1.682019591331482,
				-1.8506194353103638
			],
			"type":"VEC3"
		},
		{
			"bufferView":13,
			"componentType":5126,
			"count":116,
			"type":"VEC3"
		},
		{
			"bufferView":14,
			"componentType":5126,
			"count":116,
			"type":"VEC2"
		},
		{
			"bufferView":15,
			"componentType":5123,
			"count":186,
			"type":"SCALAR"
		},
		{
			"bufferView":16,
			"componentType":5126,
			"count":266,
			"max":[
				1.764082908630371,
				14.897083282470703,
				1.1799261569976807
			],
			"min":[
				-5.282716751098633,
				-31.017425537109375,
				-1.1799261569976807
			],
			"type":"VEC3"
		},
		{
			"bufferView":17,
			"componentType":5126,
			"count":266,
			"type":"VEC3"
		},
		{
			"bufferView":18,
			"componentType":5126,
			"count":266,
			"type":"VEC2"
		},
		{
			"bufferView":19,
			"componentType":5123,
			"count":492,
			"type":"SCALAR"
		},
		{
			"bufferView":20,
			"componentType":5126,
			"count":3247,
			"max":[
				0.8973692655563354,
				1.279346227645874,
				0.15756258368492126
			],
			"min":[
				-0.8983798027038574,
				-0.48183006048202515,
				-0.18957962095737457
			],
			"type":"VEC3"
		},
		{
			"bufferView":21,
			"componentType":5126,
			"count":3247,
			"type":"VEC3"
		},
		{
			"bufferView":22,
			"componentType":5126,
			"count":3247,
			"type":"VEC2"
		},
		{
			"bufferView":23,
			"componentType":5121,
			"count":3247,
			"type":"VEC4"
		},
		{
			"bufferView":24,
			"componentType":5126,
			"count":3247,
			"type":"VEC4"
		},
		{
			"bufferView":25,
			"componentType":5123,
			"count":10794,
			"type":"SCALAR"
		},
		{
			"bufferView":26,
			"componentType":5126,
			"count":31,
			"type":"MAT4"
		}
	],
	"bufferViews":[
		{
			"buffer":0,
			"byteLength":2304,
			"byteOffset":0,
			"target":34962
		},
		{
			"buffer":0,
			"byteLength":2304,
			"byteOffset":2304,
			"target":34962
		},
		{
			"buffer":0,
			"byteLength":1536,
			"byteOffset":4608,
			"target":34962
		},
		{
			"buffer":0,
			"byteLength":696,
			"byteOffset":6144,
			"target":34963
		},
		{
			"buffer":0,
			"byteLength":4248,
			"byteOffset":6840,
			"target":34962
		},
		{
			"buffer":0,
			"byteLength":4248,
			"byteOffset":11088,
			"target":34962
		},
		{
			"buffer":0,
			"byteLength":2832,
			"byteOffset":15336,
			"target":34962
		},
		{
			"buffer":0,
			"byteLength":1020,
			"byteOffset":18168,
			"target":34963
		},
		{
			"buffer":0,
			"byteLength":2448,
			"byteOffset":19188,
			"target":34962
		},
		{
			"buffer":0,
			"byteLength":2448,
			"byteOffset":21636,
			"target":34962
		},
		{
			"buffer":0,
			"byteLength":1632,
			"byteOffset":24084,
			"target":34962
		},
		{
			"buffer":0,
			"byteLength":624,
			"byteOffset":25716,
			"target":34963
		},
		{
			"buffer":0,
			"byteLength":1392,
			"byteOffset":26340,
			"target":34962
		},
		{
			"buffer":0,
			"byteLength":1392,
			"byteOffset":27732,
			"target":34962
		},
		{
			"buffer":0,
			"byteLength":928,
			"byteOffset":29124,
			"target":34962
		},
		{
			"buffer":0,
			"byteLength":372,
			"byteOffset":30052,
			"target":34963
		},
		{
			"buffer":0,
			"byteLength":3192,
			"byteOffset":30424,
			"target":34962
		},
		{
			"buffer":0,
			"byteLength":3192,
			"byteOffset":33616,
			"target":34962
		},
		{
			"buffer":0,
			"byteLength":2128,
			"byteOffset":36808,
			"target":34962
		},
		{
			"buffer":0,
			"byteLength":984,
			"byteOffset":38936,
			"target":34963
		},
		{
			"buffer":0,
			"byteLength":38964,
			"byteOffset":39920,
			"target":34962
		},
		{
			"buffer":0,
			"byteLength":38964,
			"byteOffset":78884,
			"target":34962
		},
		{
			"buffer":0,
			"byteLength":25976,
			"byteOffset":117848,
			"target":34962
		},
		{
			"buffer":0,
			"byteLength":12988,
			"byteOffset":143824,
			"target":34962
		},
		{
			"buffer":0,
			"byteLength":51952,
			"byteOffset":156812,
			"target":34962
		},
		{
			"buffer":0,
			"byteLength":21588,
			"byteOffset":208764,
			"target":34963
		},
		{
			"buffer":0,
			"byteLength":1984,
			"byteOffset":230352
		}
	],
	"buffers":[
		{
			"byteLength":232336,
			"uri":"jager.bin"
		}
	]
}
