{
	"asset":{
		"generator":"Khronos glTF Blender I/O v4.1.63",
		"version":"2.0"
	},
	"scene":0,
	"scenes":[
		{
			"name":"Scene",
			"nodes":[
				0
			]
		}
	],
	"nodes":[
		{
			"mesh":0,
			"name":"tree.001",
			"translation":[
				-2.895801067352295,
				3.0992841720581055,
				-1.662602186203003
			]
		}
	],
	"materials":[
		{
			"doubleSided":true,
			"name":"Material.001",
			"pbrMetallicRoughness":{
				"baseColorFactor":[
					0.800000011920929,
					0.800000011920929,
					0.800000011920929,
					1
				],
				"metallicFactor":0,
				"roughnessFactor":0.5
			}
		},
		{
			"doubleSided":true,
			"name":"Material",
			"pbrMetallicRoughness":{
				"baseColorFactor":[
					0.800000011920929,
					0.800000011920929,
					0.800000011920929,
					1
				],
				"metallicFactor":0,
				"roughnessFactor":0.5
			}
		}
	],
	"meshes":[
		{
			"name":"tree.001",
			"primitives":[
				{
					"attributes":{
						"POSITION":0,
						"NORMAL":1,
						"TEXCOORD_0":2
					},
					"indices":3,
					"material":0
				},
				{
					"attributes":{
						"POSITION":4,
						"NORMAL":5,
						"TEXCOORD_0":6
					},
					"indices":7,
					"material":1
				}
			]
		}
	],
	"accessors":[
		{
			"bufferView":0,
			"componentType":5126,
			"count":56264,
			"max":[
				6.61541748046875,
				6.484395503997803,
				5.126997947692871
			],
			"min":[
				-2.913335084915161,
				-0.5429251194000244,
				-4.700601100921631
			],
			"type":"VEC3"
		},
		{
			"bufferView":1,
			"componentType":5126,
			"count":56264,
			"type":"VEC3"
		},
		{
			"bufferView":2,
			"componentType":5126,
			"count":56264,
			"type":"VEC2"
		},
		{
			"bufferView":3,
			"componentType":5123,
			"count":265188,
			"type":"SCALAR"
		},
		{
			"bufferView":4,
			"componentType":5126,
			"count":844,
			"max":[
				6.693023681640625,
				0.8761229515075684,
				5.035611152648926
			],
			"min":[
				-0.9014215469360352,
				-1.1803094148635864,
				-2.5588343143463135
			],
			"type":"VEC3"
		},
		{
			"bufferView":5,
			"componentType":5126,
			"count":844,
			"type":"VEC3"
		},
		{
			"bufferView":6,
			"componentType":5126,
			"count":844,
			"type":"VEC2"
		},
		{
			"bufferView":7,
			"componentType":5123,
			"count":1644,
			"type":"SCALAR"
		}
	],
	"bufferViews":[
		{
			"buffer":0,
			"byteLength":675168,
			"byteOffset":0,
			"target":34962
		},
		{
			"buffer":0,
			"byteLength":675168,
			"byteOffset":675168,
			"target":34962
		},
		{
			"buffer":0,
			"byteLength":450112,
			"byteOffset":1350336,
			"target":34962
		},
		{
			"buffer":0,
			"byteLength":530376,
			"byteOffset":1800448,
			"target":34963
		},
		{
			"buffer":0,
			"byteLength":10128,
			"byteOffset":2330824,
			"target":34962
		},
		{
			"buffer":0,
			"byteLength":10128,
			"byteOffset":2340952,
			"target":34962
		},
		{
			"buffer":0,
			"byteLength":6752,
			"byteOffset":2351080,
			"target":34962
		},
		{
			"buffer":0,
			"byteLength":3288,
			"byteOffset":2357832,
			"target":34963
		}
	],
	"buffers":[
		{
			"byteLength":2361120,
			"uri":"TestBlockout_V1.bin"
		}
	]
}
